<svg width="20" height="20" viewBox="0 0 20 20" fill="none" xmlns="http://www.w3.org/2000/svg">
<g clip-path="url(#clip0_3120_23898)">
<path d="M13.332 13.3333V2.5H0.832031V13.3333H13.332ZM13.332 13.3333H19.1654V9.16667L16.6654 6.66667H13.332V13.3333ZM6.66536 15.4167C6.66536 16.5673 5.73262 17.5 4.58203 17.5C3.43144 17.5 2.4987 16.5673 2.4987 15.4167C2.4987 14.2661 3.43144 13.3333 4.58203 13.3333C5.73262 13.3333 6.66536 14.2661 6.66536 15.4167ZM17.4987 15.4167C17.4987 16.5673 16.566 17.5 15.4154 17.5C14.2648 17.5 13.332 16.5673 13.332 15.4167C13.332 14.2661 14.2648 13.3333 15.4154 13.3333C16.566 13.3333 17.4987 14.2661 17.4987 15.4167Z" stroke="#0A3421" stroke-width="2" stroke-linecap="round" stroke-linejoin="round"/>
</g>
<defs>
<clipPath id="clip0_3120_23898">
<rect width="20" height="20" fill="white"/>
</clipPath>
</defs>
</svg>
