<svg width="20" height="20" viewBox="0 0 20 20" fill="none" xmlns="http://www.w3.org/2000/svg">
<g clip-path="url(#clip0_3120_23909)">
<path d="M7.5763 7.50008C7.77222 6.94314 8.15893 6.4735 8.66793 6.17436C9.17693 5.87521 9.77538 5.76586 10.3573 5.86567C10.9392 5.96549 11.467 6.26802 11.8472 6.71969C12.2274 7.17136 12.4355 7.74302 12.4346 8.33342C12.4346 10.0001 9.93464 10.8334 9.93464 10.8334M10.0013 14.1667H10.0096M18.3346 10.0001C18.3346 14.6025 14.6037 18.3334 10.0013 18.3334C5.39893 18.3334 1.66797 14.6025 1.66797 10.0001C1.66797 5.39771 5.39893 1.66675 10.0013 1.66675C14.6037 1.66675 18.3346 5.39771 18.3346 10.0001Z" stroke="#0A3421" stroke-width="2" stroke-linecap="round" stroke-linejoin="round"/>
</g>
<defs>
<clipPath id="clip0_3120_23909">
<rect width="20" height="20" fill="white"/>
</clipPath>
</defs>
</svg>
