<svg width="20" height="20" viewBox="0 0 20 20" fill="none" xmlns="http://www.w3.org/2000/svg">
<path d="M18.75 9.30556L14.8419 8.75001L11.4583 5.36641C11.3427 5.24983 11.205 5.15741 11.0533 5.09451C10.9016 5.0316 10.739 4.99948 10.5747 5.00001H6.51493C6.30961 5.00039 6.10755 5.05134 5.9266 5.14835C5.74565 5.24537 5.59138 5.38546 5.47743 5.55626L3.18368 8.75001L0.938021 8.75035C0.036603 8.85325 0.000203795 9.52941 0 9.65278V13.125C0 13.4565 0.131696 13.7745 0.366117 14.0089C0.600537 14.2433 0.918479 14.375 1.25 14.375H2.57812C2.71581 14.9128 3.02856 15.3894 3.46707 15.7298C3.90557 16.0702 4.44489 16.2549 5 16.2549C5.55511 16.2549 6.09443 16.0702 6.53293 15.7298C6.97144 15.3894 7.28419 14.9128 7.42188 14.375H12.5781C12.7158 14.9128 13.0286 15.3894 13.4671 15.7298C13.9056 16.0702 14.4449 16.2549 15 16.2549C15.5551 16.2549 16.0944 16.0702 16.5329 15.7298C16.9714 15.3894 17.2842 14.9128 17.4219 14.375H18.75C19.0815 14.375 19.3995 14.2433 19.6339 14.0089C19.8683 13.7745 20 13.4565 20 13.125V10.5556C20 10.224 19.8683 9.9061 19.6339 9.67168C19.3995 9.43726 19.0815 9.30556 18.75 9.30556ZM6.51493 6.25001H10.5747L13.0747 8.75001H1.79688H4.57049L6.51493 6.25001ZM5 15C4.75277 15 4.5111 14.9267 4.30554 14.7893C4.09998 14.652 3.93976 14.4568 3.84515 14.2284C3.75054 14 3.72579 13.7486 3.77402 13.5061C3.82225 13.2637 3.9413 13.0409 4.11612 12.8661C4.29093 12.6913 4.51366 12.5723 4.75614 12.524C4.99861 12.4758 5.24995 12.5005 5.47835 12.5952C5.70676 12.6898 5.90199 12.85 6.03934 13.0555C6.17669 13.2611 6.25 13.5028 6.25 13.75C6.25 14.0815 6.1183 14.3995 5.88388 14.6339C5.64946 14.8683 5.33152 15 5 15ZM15 15C14.7528 15 14.5111 14.9267 14.3055 14.7893C14.1 14.652 13.9398 14.4568 13.8452 14.2284C13.7505 14 13.7258 13.7486 13.774 13.5061C13.8222 13.2637 13.9413 13.0409 14.1161 12.8661C14.2909 12.6913 14.5137 12.5723 14.7561 12.524C14.9986 12.4758 15.2499 12.5005 15.4784 12.5952C15.7068 12.6898 15.902 12.85 16.0393 13.0555C16.1767 13.2611 16.25 13.5028 16.25 13.75C16.25 14.0815 16.1183 14.3995 15.8839 14.6339C15.6495 14.8683 15.3315 15 15 15ZM18.75 13.125H17.4219C17.2842 12.5872 16.9714 12.1106 16.5329 11.7702C16.0944 11.4299 15.5551 11.2451 15 11.2451C14.4449 11.2451 13.9056 11.4299 13.4671 11.7702C13.0286 12.1106 12.7158 12.5872 12.5781 13.125H7.42188C7.28419 12.5872 6.97144 12.1106 6.53293 11.7702C6.09443 11.4299 5.55511 11.2451 5 11.2451C4.44489 11.2451 3.90557 11.4299 3.46707 11.7702C3.02856 12.1106 2.71581 12.5872 2.57812 13.125H1.25V10H14.8419L18.75 10.5556V13.125Z" fill="#102214"/>
</svg>
