<svg width="20" height="20" viewBox="0 0 20 20" fill="none" xmlns="http://www.w3.org/2000/svg">
<path d="M10.9694 5.94629C11.1315 6.49469 11.4308 6.98419 11.8276 7.37499L9.03015 9.05347C8.86805 8.50507 8.5687 8.01558 8.17188 7.62479L10.9694 5.94629Z" fill="#4B5563"/>
<path d="M8.17188 12.3752L10.9693 14.0537C11.1314 13.5053 11.4308 13.0158 11.8276 12.625L9.03015 10.9465C8.86805 11.4949 8.5687 11.9844 8.17188 12.3752Z" fill="#4B5563"/>
<path fill-rule="evenodd" clip-rule="evenodd" d="M14.1693 6.66675C15.0897 6.66675 15.8359 5.92056 15.8359 5.00008C15.8359 4.07961 15.0897 3.33341 14.1693 3.33341C13.2488 3.33341 12.5026 4.07961 12.5026 5.00008C12.5026 5.92056 13.2488 6.66675 14.1693 6.66675ZM17.5026 5.00008C17.5026 6.84103 16.0102 8.33341 14.1693 8.33341C12.3283 8.33341 10.8359 6.84103 10.8359 5.00008C10.8359 3.15913 12.3283 1.66675 14.1693 1.66675C16.0102 1.66675 17.5026 3.15913 17.5026 5.00008Z" fill="#4B5563"/>
<path fill-rule="evenodd" clip-rule="evenodd" d="M14.1693 16.6667C15.0897 16.6667 15.8359 15.9206 15.8359 15.0001C15.8359 14.0796 15.0897 13.3334 14.1693 13.3334C13.2488 13.3334 12.5026 14.0796 12.5026 15.0001C12.5026 15.9206 13.2488 16.6667 14.1693 16.6667ZM17.5026 15.0001C17.5026 16.841 16.0102 18.3334 14.1693 18.3334C12.3283 18.3334 10.8359 16.841 10.8359 15.0001C10.8359 13.1591 12.3283 11.6667 14.1693 11.6667C16.0102 11.6667 17.5026 13.1591 17.5026 15.0001Z" fill="#4B5563"/>
<path fill-rule="evenodd" clip-rule="evenodd" d="M5.83333 11.6667C6.75381 11.6667 7.5 10.9206 7.5 10.0001C7.5 9.07961 6.75381 8.33341 5.83333 8.33341C4.91286 8.33341 4.16667 9.07961 4.16667 10.0001C4.16667 10.9206 4.91286 11.6667 5.83333 11.6667ZM9.16667 10.0001C9.16667 11.841 7.67428 13.3334 5.83333 13.3334C3.99238 13.3334 2.5 11.841 2.5 10.0001C2.5 8.15913 3.99238 6.66675 5.83333 6.66675C7.67428 6.66675 9.16667 8.15913 9.16667 10.0001Z" fill="#4B5563"/>
</svg>
